<svg width="5059" height="800" viewBox="0 0 5059 800" fill="none" xmlns="http://www.w3.org/2000/svg">
<path fill-rule="evenodd" clip-rule="evenodd" d="M400 0V88.8887C571.511 88.8887 711.111 228.445 711.111 400C711.111 571.555 571.511 711.111 400 711.111C228.489 711.111 88.8887 571.555 88.8887 400C88.8887 317.911 121.555 240.622 177.778 183.022V288.889H266.667V44.4446H22.2221V133.333H101.822C36.9333 205.867 0 300.4 0 400C0 620.533 179.422 800 400 800C620.578 800 800 620.533 800 400C800 179.467 620.578 0 400 0Z" fill="black"/>
<path d="M1122.89 462.91H1208.14C1206.97 494.941 1200.53 521.992 1188.81 544.062C1177.09 565.938 1160.39 582.539 1138.71 593.867C1117.23 605.195 1091.25 610.859 1060.78 610.859C1037.15 610.859 1016.15 606.953 997.793 599.141C979.434 591.133 963.809 579.414 950.918 563.984C938.027 548.555 928.262 529.512 921.621 506.855C915.176 484.004 911.953 457.734 911.953 428.047V355.684C911.953 325.996 915.371 299.727 922.207 276.875C929.238 254.023 939.199 234.883 952.09 219.453C965.176 203.828 980.898 192.109 999.258 184.297C1017.81 176.289 1038.71 172.285 1061.95 172.285C1093.01 172.285 1118.98 178.145 1139.88 189.863C1160.78 201.582 1176.89 218.672 1188.22 241.133C1199.75 263.398 1206.68 290.645 1209.02 322.871H1123.18C1122.79 302.559 1120.55 286.641 1116.45 275.117C1112.54 263.398 1106.29 255.195 1097.7 250.508C1089.1 245.625 1077.19 243.184 1061.95 243.184C1050.62 243.184 1040.86 245.234 1032.66 249.336C1024.45 253.242 1017.71 259.59 1012.44 268.379C1007.17 277.168 1003.26 288.691 1000.72 302.949C998.379 317.207 997.207 334.59 997.207 355.098V428.047C997.207 448.164 998.281 465.352 1000.43 479.609C1002.58 493.672 1006 505.195 1010.68 514.18C1015.37 523.164 1021.72 529.707 1029.73 533.809C1037.93 537.91 1048.28 539.961 1060.78 539.961C1075.23 539.961 1086.86 537.812 1095.64 533.516C1104.63 529.219 1111.27 521.504 1115.57 510.371C1119.86 499.238 1122.3 483.418 1122.89 462.91ZM1528.48 534.102V605H1351.23V534.102H1528.48ZM1377.6 178.438V605H1291.76V178.438H1377.6ZM1853.5 534.102V605H1668.05V534.102H1853.5ZM1694.71 178.438V605H1608.87V178.438H1694.71ZM1828.59 351.289V420.137H1668.05V351.289H1828.59ZM1852.91 178.438V249.629H1668.05V178.438H1852.91ZM2087.99 254.609L1996.29 605H1905.76L2039.06 178.438H2095.61L2087.99 254.609ZM2160.35 605L2068.07 254.609L2059.57 178.438H2116.99L2251.46 605H2160.35ZM2163.57 445.918V517.109H1971.09V445.918H2163.57ZM2322.48 178.438H2459.3C2487.81 178.438 2512.13 183.32 2532.25 193.086C2552.36 202.852 2567.79 217.305 2578.54 236.445C2589.28 255.586 2594.65 279.219 2594.65 307.344C2594.65 330.391 2591.52 350.117 2585.27 366.523C2579.02 382.734 2570.14 396.309 2558.61 407.246C2547.09 417.988 2533.32 426.582 2517.3 433.027L2491.23 448.555H2380.2L2379.9 377.363H2456.95C2468.67 377.363 2478.34 374.824 2485.96 369.746C2493.77 364.473 2499.53 357.148 2503.24 347.773C2507.15 338.203 2509.1 327.07 2509.1 314.375C2509.1 300.898 2507.34 289.375 2503.83 279.805C2500.51 270.039 2495.14 262.617 2487.71 257.539C2480.49 252.266 2471.02 249.629 2459.3 249.629H2408.32V605H2322.48V178.438ZM2516.13 605L2437.91 414.863L2527.85 414.57L2607.83 600.898V605H2516.13ZM2938.54 178.438V605H2852.7V178.438H2938.54ZM3072.13 359.785V430.684H2916.86V359.785H3072.13ZM3088.54 178.438V249.629H2916.86V178.438H3088.54ZM3257.7 178.438V605H3172.44V178.438H3257.7ZM3597.66 534.102V605H3420.41V534.102H3597.66ZM3446.78 178.438V605H3360.94V178.438H3446.78ZM3787.03 178.438V605H3701.78V178.438H3787.03ZM3893.09 178.438V249.629H3597.77V178.438H3893.09ZM4217.52 534.102V605H4032.07V534.102H4217.52ZM4058.73 178.438V605H3972.89V178.438H4058.73ZM4192.62 351.289V420.137H4032.07V351.289H4192.62ZM4216.93 178.438V249.629H4032.07V178.438H4216.93ZM4297.91 178.438H4434.73C4463.24 178.438 4487.56 183.32 4507.68 193.086C4527.79 202.852 4543.22 217.305 4553.96 236.445C4564.71 255.586 4570.08 279.219 4570.08 307.344C4570.08 330.391 4566.95 350.117 4560.7 366.523C4554.45 382.734 4545.57 396.309 4534.04 407.246C4522.52 417.988 4508.75 426.582 4492.73 433.027L4466.66 448.555H4355.62L4355.33 377.363H4432.38C4444.1 377.363 4453.77 374.824 4461.39 369.746C4469.2 364.473 4474.96 357.148 4478.67 347.773C4482.58 338.203 4484.53 327.07 4484.53 314.375C4484.53 300.898 4482.77 289.375 4479.26 279.805C4475.94 270.039 4470.57 262.617 4463.14 257.539C4455.92 252.266 4446.45 249.629 4434.73 249.629H4383.75V605H4297.91V178.438ZM4491.56 605L4413.34 414.863L4503.28 414.57L4583.26 600.898V605H4491.56ZM4840.31 492.793C4840.31 485.176 4839.63 478.242 4838.26 471.992C4836.89 465.742 4833.96 459.98 4829.47 454.707C4825.18 449.434 4818.83 444.16 4810.43 438.887C4802.23 433.613 4791.48 428.145 4778.2 422.48C4762.38 415.84 4747.05 408.809 4732.21 401.387C4717.36 393.77 4703.98 384.98 4692.07 375.02C4680.16 365.059 4670.68 353.34 4663.65 339.863C4656.82 326.191 4653.4 310.176 4653.4 291.816C4653.4 273.848 4656.62 257.539 4663.07 242.891C4669.71 228.242 4679.08 215.742 4691.19 205.391C4703.3 194.844 4717.46 186.738 4733.67 181.074C4750.08 175.41 4768.34 172.578 4788.46 172.578C4815.8 172.578 4839.43 178.242 4859.36 189.57C4879.47 200.898 4895 216.426 4905.94 236.152C4917.07 255.879 4922.64 278.535 4922.64 304.121H4837.09C4837.09 292.012 4835.33 281.367 4831.82 272.188C4828.5 262.812 4823.12 255.488 4815.7 250.215C4808.28 244.941 4798.71 242.305 4786.99 242.305C4776.05 242.305 4766.97 244.551 4759.75 249.043C4752.71 253.34 4747.44 259.297 4743.93 266.914C4740.61 274.336 4738.95 282.734 4738.95 292.109C4738.95 299.141 4740.61 305.488 4743.93 311.152C4747.44 316.621 4752.23 321.602 4758.28 326.094C4764.34 330.391 4771.46 334.59 4779.67 338.691C4788.07 342.793 4797.25 346.797 4807.21 350.703C4826.54 358.32 4843.63 366.719 4858.48 375.898C4873.32 384.883 4885.72 395.039 4895.68 406.367C4905.64 417.5 4913.16 430.098 4918.24 444.16C4923.32 458.223 4925.86 474.238 4925.86 492.207C4925.86 509.98 4922.73 526.191 4916.48 540.84C4910.43 555.293 4901.54 567.793 4889.82 578.34C4878.11 588.691 4863.95 596.699 4847.34 602.363C4830.94 608.027 4812.58 610.859 4792.27 610.859C4772.54 610.859 4753.89 608.125 4736.31 602.656C4718.73 596.992 4703.2 588.496 4689.73 577.168C4676.45 565.645 4666 551.094 4658.38 533.516C4650.76 515.742 4646.95 494.746 4646.95 470.527H4732.79C4732.79 483.418 4734.06 494.453 4736.6 503.633C4739.14 512.617 4743.05 519.844 4748.32 525.312C4753.59 530.586 4760.04 534.59 4767.66 537.324C4775.47 539.863 4784.36 541.133 4794.32 541.133C4805.64 541.133 4814.63 538.984 4821.27 534.688C4828.11 530.391 4832.99 524.629 4835.92 517.402C4838.85 510.176 4840.31 501.973 4840.31 492.793Z" fill="#111111"/>
</svg>
