<svg width="800" height="800" viewBox="0 0 800 800" fill="none" xmlns="http://www.w3.org/2000/svg">
<path d="M136 133.333L352.067 403.367C361.525 415.194 366.674 429.889 366.667 445.033V666.667L433.333 616.667V445C433.334 429.867 438.482 415.185 447.933 403.367L664 133.333H136.033H136ZM136 66.6666H664C676.559 66.6682 688.863 70.2174 699.493 76.9055C710.123 83.5935 718.648 93.1484 724.086 104.47C729.524 115.791 731.653 128.417 730.228 140.896C728.803 153.374 723.883 165.196 716.033 175L500 445V616.667C500 627.016 497.59 637.224 492.962 646.481C488.333 655.738 481.613 663.79 473.333 670L406.667 720C396.762 727.428 384.984 731.952 372.654 733.064C360.323 734.176 347.926 731.832 336.852 726.295C325.779 720.758 316.466 712.247 309.957 701.715C303.448 691.184 300 679.047 300 666.667V445L83.9666 175C76.1171 165.196 71.1966 153.374 69.7719 140.896C68.3472 128.417 70.4763 115.791 75.9139 104.47C81.3516 93.1484 89.8765 83.5935 100.507 76.9055C111.137 70.2174 123.441 66.6682 136 66.6666Z" fill="white"/>
</svg>
