<svg width="800" height="800" viewBox="0 0 800 800" fill="none" xmlns="http://www.w3.org/2000/svg">
<path d="M733.347 403.495C733.347 469.425 713.797 533.874 677.168 588.693C640.539 643.511 588.478 686.237 527.567 711.467C466.655 736.698 399.63 743.299 334.967 730.437C270.304 717.575 210.907 685.826 164.288 639.207C117.668 592.587 85.9201 533.191 73.0578 468.528C60.1955 403.864 66.7969 336.839 92.0272 275.928C117.257 215.017 159.983 162.955 214.802 126.327C269.621 89.6978 334.07 70.1473 400 70.1473C443.776 70.1473 487.123 78.7696 527.567 95.5219C568.01 112.274 604.758 136.828 635.712 167.783C666.666 198.737 691.221 235.485 707.973 275.928C724.725 316.372 733.347 359.719 733.347 403.495ZM288.421 139.326C222.644 166.979 169.49 218.088 139.278 282.729C109.066 347.371 103.952 420.933 124.93 489.132C145.908 557.332 191.48 615.304 252.798 651.791C314.117 688.278 386.806 700.678 456.753 686.583C526.701 672.488 588.915 632.904 631.316 575.516C673.718 518.128 693.282 447.031 686.209 376.029C679.136 305.028 645.932 239.187 593.043 191.291C540.153 143.395 471.353 116.862 400 116.842C361.676 116.779 323.73 124.425 288.421 139.326ZM400.168 195.579C409.634 195.562 418.892 198.354 426.769 203.602C434.647 208.849 440.791 216.316 444.423 225.057C448.055 233.799 449.012 243.421 447.172 252.706C445.333 261.991 440.78 270.521 434.09 277.218C427.399 283.914 418.873 288.474 409.589 290.322C400.306 292.17 390.683 291.221 381.939 287.597C373.194 283.973 365.722 277.836 360.468 269.962C355.213 262.089 352.413 252.834 352.421 243.368C352.421 230.69 357.455 218.53 366.416 209.561C375.377 200.592 387.532 195.548 400.211 195.537L400.168 195.579ZM433.516 583.916V364.842C433.675 360.366 432.931 355.904 431.328 351.721C429.724 347.539 427.295 343.723 424.185 340.5C421.075 337.277 417.347 334.714 413.224 332.963C409.101 331.212 404.668 330.31 400.189 330.31C395.711 330.31 391.277 331.212 387.155 332.963C383.032 334.714 379.304 337.277 376.194 340.5C373.084 343.723 370.655 347.539 369.051 351.721C367.448 355.904 366.704 360.366 366.863 364.842V583.916C367.17 592.549 370.816 600.727 377.032 606.726C383.248 612.726 391.55 616.078 400.189 616.078C408.829 616.078 417.131 612.726 423.347 606.726C429.563 600.727 433.209 592.549 433.516 583.916Z" fill="white"/>
</svg>
