<svg width="1282" height="720" viewBox="0 0 1282 720" fill="none" xmlns="http://www.w3.org/2000/svg">
<rect x="2" width="1279.29" height="720" fill="white"/>
<foreignObject x="632.536" y="81.2295" width="652.875" height="326.923"><div xmlns="http://www.w3.org/1999/xhtml" style="backdrop-filter:blur(12.5px);clip-path:url(#bgblur_0_628_13_clip_path);height:100%;width:100%"></div></foreignObject><g filter="url(#filter0_d_628_13)" data-figma-bg-blur-radius="25">
<path d="M657.536 114.571C657.536 109.964 662.373 106.229 668.34 106.229H1249.61C1255.57 106.229 1260.41 109.964 1260.41 114.571V374.811C1260.41 379.418 1255.57 383.153 1249.61 383.153H668.34C662.373 383.153 657.536 379.418 657.536 374.811V114.571Z" fill="url(#paint0_linear_628_13)" shape-rendering="crispEdges"/>
<path d="M668.34 106.729H1249.61C1255.43 106.73 1259.91 110.353 1259.91 114.57V374.812C1259.91 379.029 1255.43 382.652 1249.61 382.652H668.34C662.521 382.652 658.036 379.029 658.036 374.812V114.57C658.036 110.353 662.522 106.729 668.34 106.729Z" stroke="url(#paint1_linear_628_13)" shape-rendering="crispEdges"/>
</g>
<foreignObject x="-6.65723" y="81.2295" width="672.85" height="326.923"><div xmlns="http://www.w3.org/1999/xhtml" style="backdrop-filter:blur(12.5px);clip-path:url(#bgblur_1_628_13_clip_path);height:100%;width:100%"></div></foreignObject><g filter="url(#filter1_d_628_13)" data-figma-bg-blur-radius="25">
<path d="M18.3428 114.571C18.3428 109.964 23.3403 106.229 29.505 106.229H630.031C636.195 106.229 641.193 109.964 641.193 114.571V374.811C641.193 379.418 636.195 383.153 630.031 383.153H29.505C23.3403 383.153 18.3428 379.418 18.3428 374.811V114.571Z" fill="url(#paint2_linear_628_13)" shape-rendering="crispEdges"/>
<path d="M29.5049 106.729H630.03C633.015 106.729 635.699 107.634 637.624 109.073C639.549 110.512 640.692 112.461 640.692 114.57V374.812C640.692 376.921 639.549 378.87 637.624 380.309C635.699 381.747 633.015 382.652 630.03 382.652H29.5049C26.5199 382.652 23.8365 381.747 21.9111 380.309C19.986 378.87 18.8428 376.921 18.8428 374.812V114.57C18.8429 112.461 19.986 110.512 21.9111 109.073C23.8365 107.634 26.5199 106.73 29.5049 106.729Z" stroke="url(#paint3_linear_628_13)" shape-rendering="crispEdges"/>
</g>
<foreignObject x="-7.56494" y="368.14" width="672.85" height="354.161"><div xmlns="http://www.w3.org/1999/xhtml" style="backdrop-filter:blur(12.5px);clip-path:url(#bgblur_2_628_13_clip_path);height:100%;width:100%"></div></foreignObject><g filter="url(#filter2_d_628_13)" data-figma-bg-blur-radius="25">
<path d="M17.4351 402.302C17.4351 397.242 22.4325 393.14 28.5972 393.14H629.123C635.288 393.14 640.285 397.242 640.285 402.302V688.14C640.285 693.2 635.288 697.301 629.123 697.301H28.5972C22.4325 697.301 17.4351 693.2 17.4351 688.14V402.302Z" fill="url(#paint4_linear_628_13)" shape-rendering="crispEdges"/>
<path d="M28.5972 393.64H629.123C635.108 393.64 639.784 397.606 639.785 402.301V688.14C639.785 692.836 635.108 696.801 629.123 696.801H28.5972C22.6118 696.801 17.9351 692.836 17.9351 688.14V402.301C17.9353 397.606 22.6119 393.64 28.5972 393.64Z" stroke="url(#paint5_linear_628_13)" shape-rendering="crispEdges"/>
</g>
<foreignObject x="632.536" y="368.14" width="652.875" height="354.161"><div xmlns="http://www.w3.org/1999/xhtml" style="backdrop-filter:blur(12.5px);clip-path:url(#bgblur_3_628_13_clip_path);height:100%;width:100%"></div></foreignObject><g filter="url(#filter3_d_628_13)" data-figma-bg-blur-radius="25">
<path d="M657.536 402.302C657.536 397.242 662.373 393.14 668.34 393.14H1249.61C1255.57 393.14 1260.41 397.242 1260.41 402.302V688.14C1260.41 693.2 1255.57 697.301 1249.61 697.301H668.34C662.373 697.301 657.536 693.2 657.536 688.14V402.302Z" fill="url(#paint6_linear_628_13)" shape-rendering="crispEdges"/>
<path d="M668.34 393.64H1249.61C1255.38 393.64 1259.91 397.592 1259.91 402.301V688.14C1259.91 692.849 1255.38 696.801 1249.61 696.801H668.34C662.569 696.801 658.036 692.849 658.036 688.14V402.301C658.036 397.592 662.569 393.64 668.34 393.64Z" stroke="url(#paint7_linear_628_13)" shape-rendering="crispEdges"/>
</g>
<rect y="28" width="1280" height="59" fill="#6B6B6B" fill-opacity="0.53"/>
<defs>
<filter id="filter0_d_628_13" x="632.536" y="81.2295" width="652.875" height="326.923" filterUnits="userSpaceOnUse" color-interpolation-filters="sRGB">
<feFlood flood-opacity="0" result="BackgroundImageFix"/>
<feColorMatrix in="SourceAlpha" type="matrix" values="0 0 0 0 0 0 0 0 0 0 0 0 0 0 0 0 0 0 127 0" result="hardAlpha"/>
<feOffset dy="10"/>
<feGaussianBlur stdDeviation="5"/>
<feComposite in2="hardAlpha" operator="out"/>
<feColorMatrix type="matrix" values="0 0 0 0 0.541176 0 0 0 0 0 0 0 0 0 0.768627 0 0 0 0.05 0"/>
<feBlend mode="normal" in2="BackgroundImageFix" result="effect1_dropShadow_628_13"/>
<feBlend mode="normal" in="SourceGraphic" in2="effect1_dropShadow_628_13" result="shape"/>
</filter>
<clipPath id="bgblur_0_628_13_clip_path" transform="translate(-632.536 -81.2295)"><path d="M657.536 114.571C657.536 109.964 662.373 106.229 668.34 106.229H1249.61C1255.57 106.229 1260.41 109.964 1260.41 114.571V374.811C1260.41 379.418 1255.57 383.153 1249.61 383.153H668.34C662.373 383.153 657.536 379.418 657.536 374.811V114.571Z"/>
</clipPath><filter id="filter1_d_628_13" x="-6.65723" y="81.2295" width="672.85" height="326.923" filterUnits="userSpaceOnUse" color-interpolation-filters="sRGB">
<feFlood flood-opacity="0" result="BackgroundImageFix"/>
<feColorMatrix in="SourceAlpha" type="matrix" values="0 0 0 0 0 0 0 0 0 0 0 0 0 0 0 0 0 0 127 0" result="hardAlpha"/>
<feOffset dy="10"/>
<feGaussianBlur stdDeviation="5"/>
<feComposite in2="hardAlpha" operator="out"/>
<feColorMatrix type="matrix" values="0 0 0 0 0.541176 0 0 0 0 0 0 0 0 0 0.768627 0 0 0 0.05 0"/>
<feBlend mode="normal" in2="BackgroundImageFix" result="effect1_dropShadow_628_13"/>
<feBlend mode="normal" in="SourceGraphic" in2="effect1_dropShadow_628_13" result="shape"/>
</filter>
<clipPath id="bgblur_1_628_13_clip_path" transform="translate(6.65723 -81.2295)"><path d="M18.3428 114.571C18.3428 109.964 23.3403 106.229 29.505 106.229H630.031C636.195 106.229 641.193 109.964 641.193 114.571V374.811C641.193 379.418 636.195 383.153 630.031 383.153H29.505C23.3403 383.153 18.3428 379.418 18.3428 374.811V114.571Z"/>
</clipPath><filter id="filter2_d_628_13" x="-7.56494" y="368.14" width="672.85" height="354.161" filterUnits="userSpaceOnUse" color-interpolation-filters="sRGB">
<feFlood flood-opacity="0" result="BackgroundImageFix"/>
<feColorMatrix in="SourceAlpha" type="matrix" values="0 0 0 0 0 0 0 0 0 0 0 0 0 0 0 0 0 0 127 0" result="hardAlpha"/>
<feOffset dy="10"/>
<feGaussianBlur stdDeviation="5"/>
<feComposite in2="hardAlpha" operator="out"/>
<feColorMatrix type="matrix" values="0 0 0 0 0.541176 0 0 0 0 0 0 0 0 0 0.768627 0 0 0 0.05 0"/>
<feBlend mode="normal" in2="BackgroundImageFix" result="effect1_dropShadow_628_13"/>
<feBlend mode="normal" in="SourceGraphic" in2="effect1_dropShadow_628_13" result="shape"/>
</filter>
<clipPath id="bgblur_2_628_13_clip_path" transform="translate(7.56494 -368.14)"><path d="M17.4351 402.302C17.4351 397.242 22.4325 393.14 28.5972 393.14H629.123C635.288 393.14 640.285 397.242 640.285 402.302V688.14C640.285 693.2 635.288 697.301 629.123 697.301H28.5972C22.4325 697.301 17.4351 693.2 17.4351 688.14V402.302Z"/>
</clipPath><filter id="filter3_d_628_13" x="632.536" y="368.14" width="652.875" height="354.161" filterUnits="userSpaceOnUse" color-interpolation-filters="sRGB">
<feFlood flood-opacity="0" result="BackgroundImageFix"/>
<feColorMatrix in="SourceAlpha" type="matrix" values="0 0 0 0 0 0 0 0 0 0 0 0 0 0 0 0 0 0 127 0" result="hardAlpha"/>
<feOffset dy="10"/>
<feGaussianBlur stdDeviation="5"/>
<feComposite in2="hardAlpha" operator="out"/>
<feColorMatrix type="matrix" values="0 0 0 0 0.541176 0 0 0 0 0 0 0 0 0 0.768627 0 0 0 0.05 0"/>
<feBlend mode="normal" in2="BackgroundImageFix" result="effect1_dropShadow_628_13"/>
<feBlend mode="normal" in="SourceGraphic" in2="effect1_dropShadow_628_13" result="shape"/>
</filter>
<clipPath id="bgblur_3_628_13_clip_path" transform="translate(-632.536 -368.14)"><path d="M657.536 402.302C657.536 397.242 662.373 393.14 668.34 393.14H1249.61C1255.57 393.14 1260.41 397.242 1260.41 402.302V688.14C1260.41 693.2 1255.57 697.301 1249.61 697.301H668.34C662.373 697.301 657.536 693.2 657.536 688.14V402.302Z"/>
</clipPath><linearGradient id="paint0_linear_628_13" x1="958.973" y1="356.98" x2="958.973" y2="106.229" gradientUnits="userSpaceOnUse">
<stop stop-color="white" stop-opacity="0.07"/>
<stop offset="1" stop-color="#101010" stop-opacity="0.15"/>
</linearGradient>
<linearGradient id="paint1_linear_628_13" x1="1260.41" y1="244.474" x2="649.564" y2="242.528" gradientUnits="userSpaceOnUse">
<stop stop-opacity="0.35"/>
<stop offset="1" stop-color="white" stop-opacity="0.25"/>
</linearGradient>
<linearGradient id="paint2_linear_628_13" x1="329.768" y1="356.98" x2="329.768" y2="106.229" gradientUnits="userSpaceOnUse">
<stop stop-color="white" stop-opacity="0.07"/>
<stop offset="1" stop-color="#101010" stop-opacity="0.15"/>
</linearGradient>
<linearGradient id="paint3_linear_628_13" x1="641.193" y1="244.474" x2="10.1077" y2="242.397" gradientUnits="userSpaceOnUse">
<stop stop-opacity="0.35"/>
<stop offset="1" stop-color="white" stop-opacity="0.25"/>
</linearGradient>
<linearGradient id="paint4_linear_628_13" x1="328.86" y1="668.554" x2="328.86" y2="393.14" gradientUnits="userSpaceOnUse">
<stop stop-color="white" stop-opacity="0.07"/>
<stop offset="1" stop-color="#101010" stop-opacity="0.15"/>
</linearGradient>
<linearGradient id="paint5_linear_628_13" x1="640.285" y1="544.983" x2="9.19885" y2="543.091" gradientUnits="userSpaceOnUse">
<stop stop-opacity="0.35"/>
<stop offset="1" stop-color="white" stop-opacity="0.25"/>
</linearGradient>
<linearGradient id="paint6_linear_628_13" x1="958.973" y1="668.554" x2="958.973" y2="393.14" gradientUnits="userSpaceOnUse">
<stop stop-color="white" stop-opacity="0.07"/>
<stop offset="1" stop-color="#101010" stop-opacity="0.15"/>
</linearGradient>
<linearGradient id="paint7_linear_628_13" x1="1260.41" y1="544.983" x2="649.563" y2="543.211" gradientUnits="userSpaceOnUse">
<stop stop-opacity="0.35"/>
<stop offset="1" stop-color="white" stop-opacity="0.25"/>
</linearGradient>
</defs>
</svg>
